<svg width="128" height="128" viewBox="0 0 128 128" fill="none" xmlns="http://www.w3.org/2000/svg">
<g clip-path="url(#clip0)">
<path d="M0 64C0 28.6538 28.6538 0 64 0C99.3462 0 128 28.6538 128 64C128 99.3462 99.3462 128 64 128C28.6538 128 0 99.3462 0 64Z" fill="#FFE1E7"/>
<path d="M12.8 48L-8 40V0H136V40L115.2 48L73.6 64H54.4L12.8 48Z" fill="black"/>
<path fill-rule="evenodd" clip-rule="evenodd" d="M107.2 15.1999C104.991 15.1999 103.2 16.9908 103.2 19.1999C103.2 24.06 99.2601 27.9999 94.4 27.9999V23.1999C96.6091 23.1999 98.4 21.409 98.4 19.1999C98.4 14.3398 102.34 10.3999 107.2 10.3999V15.1999Z" fill="#FFE1E7"/>
<path fill-rule="evenodd" clip-rule="evenodd" d="M16 31.2001C19.0928 31.2001 21.6 28.6929 21.6 25.6001H26.4C26.4 31.3439 21.7438 36.0001 16 36.0001V31.2001Z" fill="#62E9BD"/>
<path d="M64 11.2002L67.4846 18.9156L75.2 22.4002L67.4846 25.8848L64 33.6002L60.5154 25.8848L52.8 22.4002L60.5154 18.9156L64 11.2002Z" fill="#FFE1E7"/>
<path d="M112 30.3999L113.493 33.7065L116.8 35.1999L113.493 36.6933L112 39.9999L110.507 36.6933L107.2 35.1999L110.507 33.7065L112 30.3999Z" fill="#62E9BD"/>
<path d="M32 11.2002L33.4934 14.5068L36.8 16.0002L33.4934 17.4936L32 20.8002L30.5066 17.4936L27.2 16.0002L30.5066 14.5068L32 11.2002Z" fill="#FFE1E7"/>
<path d="M76.8 0L78.2934 3.30659L81.6 4.8L78.2934 6.29341L76.8 9.6L75.3066 6.29341L72 4.8L75.3066 3.30659L76.8 0Z" fill="#62E9BD"/>
<ellipse cx="46.4" cy="11.2" rx="3.2" ry="3.2" fill="#62E9BD"/>
<ellipse cx="84.8" cy="23.9999" rx="1.6" ry="1.6" fill="#62E9BD"/>
<ellipse cx="33.6" cy="51.2" rx="3.2" ry="3.2" fill="#FFE1E7"/>
<ellipse cx="96" cy="54.4001" rx="4.8" ry="4.8" fill="#FFE1E7"/>
<circle cx="56" cy="64" r="8" fill="#62E9BD"/>
<path d="M73.6 64L115.2 48V128L73.6 144V64Z" fill="#0C28A5"/>
<path d="M12.8 48L54.4 64V144L12.8 128V48Z" fill="#D0DEFF"/>
<rect x="54.4" y="64" width="19.2" height="64" fill="black"/>
<path fill-rule="evenodd" clip-rule="evenodd" d="M67.2 73.6001C67.2 75.3674 68.6327 76.8001 70.4 76.8001L70.4 156.8H57.6L57.6 76.8001C59.3673 76.8001 60.8 75.3674 60.8 73.6001H67.2ZM59.2 78.127C60.5639 77.6449 61.6448 76.564 62.1269 75.2001L65.8731 75.2001C66.3552 76.564 67.4361 77.6449 68.8 78.127L68.8 155.2H59.2L59.2 78.127Z" fill="white"/>
<path fill-rule="evenodd" clip-rule="evenodd" d="M21.2021 39.3086L55.6021 59.3086L54.7979 60.6918L20.3979 40.6918L21.2021 39.3086Z" fill="white"/>
<path fill-rule="evenodd" clip-rule="evenodd" d="M34.1657 33.0347L58.1657 57.0347L57.0343 58.166L33.0343 34.166L34.1657 33.0347Z" fill="white"/>
<path fill-rule="evenodd" clip-rule="evenodd" d="M93.8343 33.0347L69.8343 57.0347L70.9657 58.166L94.9657 34.166L93.8343 33.0347Z" fill="white"/>
<path fill-rule="evenodd" clip-rule="evenodd" d="M51.1397 28.4956L62.3397 55.6956L60.8602 56.3048L49.6602 29.1048L51.1397 28.4956Z" fill="white"/>
<path fill-rule="evenodd" clip-rule="evenodd" d="M106.798 39.3086L72.3979 59.3086L73.2021 60.6918L107.602 40.6918L106.798 39.3086Z" fill="white"/>
<path fill-rule="evenodd" clip-rule="evenodd" d="M76.8602 28.4956L65.6602 55.6956L67.1397 56.3048L78.3397 29.1048L76.8602 28.4956Z" fill="white"/>
</g>
<defs>
<clipPath id="clip0">
<path d="M0 64C0 28.6538 28.6538 0 64 0C99.3462 0 128 28.6538 128 64C128 99.3462 99.3462 128 64 128C28.6538 128 0 99.3462 0 64Z" fill="white"/>
</clipPath>
</defs>
</svg>
